<svg xmlns="http://www.w3.org/2000/svg" viewBox="0 0 1000.0 716.94" width="1000.0" height="716.94" fill="none" role="img" aria-label="Gadgetra.lk" xmlns:c2pa="http://c2pa.org/manifest"><metadata><c2pa:manifest>AAAWgmp1bWIAAAAeanVtZGMycGEAEQAQgAAAqgA4m3EDYzJwYQAAABZcanVtYgAAAEdqdW1kYzJtYQARABCAAACqADibcQN1cm46YzJwYTo2M2EwZWI5Yi0zYTk3LTQ4ZmEtOTBhNS0xODI2YmIyMjBkYjUAAAADl2p1bWIAAAApanVtZGMyYXMAEQAQgAAAqgA4m3EDYzJwYS5hc3NlcnRpb25zAAAAALxqdW1iAAAARGp1bWRjYm9yABEAEIAAAKoAOJtxE2MycGEuaW5ncmVkaWVudC52MwAAAAAYYzJzaGdcU4THaNkJJnXZ+rkiO7YAAABwY2JvcqNpZGM6Zm9ybWF0bWltYWdlL3N2Zyt4bWxqaW5zdGFuY2VJRHgseG1wOmlpZDowNzMyMTE0Ny00MjQ3LTQxZmMtYTlhZi1mMzc5NzNkYTBlZTBscmVsYXRpb25zaGlwaHBhcmVudE9mAAAB4mp1bWIAAABBanVtZGNib3IAEQAQgAAAqgA4m3ETYzJwYS5hY3Rpb25zLnYyAAAAABhjMnNom1H7xuf+dR4AinlMJdbzNwAAAZljYm9yomdhY3Rpb25zgqJmYWN0aW9ua2MycGEub3BlbmVkanBhcmFtZXRlcnOha2luZ3JlZGllbnRzgaJjdXJseC1zZWxmI2p1bWJmPWMycGEuYXNzZXJ0aW9ucy9jMnBhLmluZ3JlZGllbnQudjNkaGFzaFggKQ66Ix1+TN2cVghR4aesYu0M0+Pyp5BbniXoZ7rjTg+kZmFjdGlvbngdY29tLmFudGhyb3BpYy5jbGF1ZGUucHJvdmlkZWRqcGFyYW1ldGVyc6F4H2NvbS5hbnRocm9waWMub3JpZ2luLWNvbmZpZGVuY2VndW5rbm93bmtkZXNjcmlwdGlvbnhmQ2xhdWRlIHByb3ZpZGVkIHRoaXMgZmlsZSBhdCB0aGUgcmVxdWVzdCBvZiBhIHVzZXIgYW5kIG1heSBoYXZlIGNyZWF0ZWQgb3IgbW9kaWZpZWQgdGhlIGZpbGUgY29udGVudHMubXNvZnR3YXJlQWdlbnShZG5hbWVmQ2xhdWRlcmFsbEFjdGlvbnNJbmNsdWRlZPUAAADIanVtYgAAAEBqdW1kY2JvcgARABCAAACqADibcRNjMnBhLmhhc2guZGF0YQAAAAAYYzJzaFr5xcboFJl9ErfJzTUY9X0AAACAY2JvcqVjYWxnZnNoYTI1NmNwYWRNAAAAAAAAAAAAAAAAAGRoYXNoWCB7EkEU25IRODV+Q+elQbJjaMwTxA6RrP717B4FCJiE72RuYW1lbmp1bWJmIG1hbmlmZXN0amV4Y2x1c2lvbnOBomVzdGFydBjSZmxlbmd0aBkeBAAAAj5qdW1iAAAAJ2p1bWRjMmNsABEAEIAAAKoAOJtxA2MycGEuY2xhaW0udjIAAAACD2Nib3KlY2FsZ2ZzaGEyNTZpc2lnbmF0dXJleE1zZWxmI2p1bWJmPS9jMnBhL3VybjpjMnBhOjYzYTBlYjliLTNhOTctNDhmYS05MGE1LTE4MjZiYjIyMGRiNS9jMnBhLnNpZ25hdHVyZWppbnN0YW5jZUlEeCx4bXA6aWlkOjZiMTRlNDRmLTFlMWQtNDkxZS1hZjU1LWM2OGZhYjhlMjU1NXJjcmVhdGVkX2Fzc2VydGlvbnODomN1cmx4LXNlbGYjanVtYmY9YzJwYS5hc3NlcnRpb25zL2MycGEuaW5ncmVkaWVudC52M2RoYXNoWCApDrojHX5M3ZxWCFHhp6xi7QzT4/KnkFueJehnuuNOD6JjdXJseCpzZWxmI2p1bWJmPWMycGEuYXNzZXJ0aW9ucy9jMnBhLmFjdGlvbnMudjJkaGFzaFggTiqTl985RvDQxa2B/AgXqpaE9mQt53sR1lVOrywRZrqiY3VybHgpc2VsZiNqdW1iZj1jMnBhLmFzc2VydGlvbnMvYzJwYS5oYXNoLmRhdGFkaGFzaFggQTP1hke8eXaV5ZBAj4+MOGNLehI6ZkGab19EWKeleOB0Y2xhaW1fZ2VuZXJhdG9yX2luZm+jZG5hbWVvQW50aHJvcGljIEZpbGVzZ3ZlcnNpb25lMS4wLjBrc3BlY1ZlcnNpb25lMi40LjAAABA4anVtYgAAAChqdW1kYzJjcwARABCAAACqADibcQNjMnBhLnNpZ25hdHVyZQAAABAIY2JvctKEWQISogEmGCFZAgowggIGMIIBjaADAgECAhRA5aAK7sI50L64g/oGQgU9Z1UTADAKBggqhkjOPQQDAzBJMRcwFQYDVQQKEw5BbnRocm9waWMsIFBCQzEuMCwGA1UEAxMlQW50aHJvcGljIENvbnRlbnQgQ3JlZGVudGlhbHMgUm9vdCBDQTAeFw0yNjA4MDcxODQzNTZaFw0yODA4MDYxOTQzNTZaMEQxFzAVBgNVBAoTDkFudGhyb3BpYywgUEJDMSkwJwYDVQQDEyBBbnRocm9waWMgQ2xhdWRlIENvbnRlbnQgU2lnbmluZzBZMBMGByqGSM49AgEGCCqGSM49AwEHA0IABJh6CmvLUBgFFNU0vUKlOVtE6djd17L5SuwX0LemFisBM3dkd/3cyjxFA3Qo5S46fX0/ihY0VZ7mfb9KF703t5OjWDBWMA4GA1UdDwEB/wQEAwIHgDAVBgNVHSUEDjAMBgorBgEEAYPoXgIBMAwGA1UdEwEB/wQCMAAwHwYDVR0jBBgwFoAUzlHiBIFOZFsj+OPEz5o+nMHXXMIwCgYIKoZIzj0EAwMDZwAwZAIwMXMdFJ4BetLLVY7ORuE9noqbbAZOZn/aArXyTwFAZfKrPzxF2vPoJNf1+UCdg1XGAjBwX1zd9WGqYkqmL5SFqw1QySjr1zJfpJM9+1rdDwSPLMOPOjKuiXjoU/pUUeG9RwmhY3BhZFkNngAAAAAAAAAAAAAAAAAAAAAAAAAAAAAAAAAAAAAAAAAAAAAAAAAAAAAAAAAAAAAAAAAAAAAAAAAAAAAAAAAAAAAAAAAAAAAAAAAAAAAAAAAAAAAAAAAAAAAAAAAAAAAAAAAAAAAAAAAAAAAAAAAAAAAAAAAAAAAAAAAAAAAAAAAAAAAAAAAAAAAAAAAAAAAAAAAAAAAAAAAAAAAAAAAAAAAAAAAAAAAAAAAAAAAAAAAAAAAAAAAAAAAAAAAAAAAAAAAAAAAAAAAAAAAAAAAAAAAAAAAAAAAAAAAAAAAAAAAAAAAAAAAAAAAAAAAAAAAAAAAAAAAAAAAAAAAAAAAAAAAAAAAAAAAAAAAAAAAAAAAAAAAAAAAAAAAAAAAAAAAAAAAAAAAAAAAAAAAAAAAAAAAAAAAAAAAAAAAAAAAAAAAAAAAAAAAAAAAAAAAAAAAAAAAAAAAAAAAAAAAAAAAAAAAAAAAAAAAAAAAAAAAAAAAAAAAAAAAAAAAAAAAAAAAAAAAAAAAAAAAAAAAAAAAAAAAAAAAAAAAAAAAAAAAAAAAAAAAAAAAAAAAAAAAAAAAAAAAAAAAAAAAAAAAAAAAAAAAAAAAAAAAAAAAAAAAAAAAAAAAAAAAAAAAAAAAAAAAAAAAAAAAAAAAAAAAAAAAAAAAAAAAAAAAAAAAAAAAAAAAAAAAAAAAAAAAAAAAAAAAAAAAAAAAAAAAAAAAAAAAAAAAAAAAAAAAAAAAAAAAAAAAAAAAAAAAAAAAAAAAAAAAAAAAAAAAAAAAAAAAAAAAAAAAAAAAAAAAAAAAAAAAAAAAAAAAAAAAAAAAAAAAAAAAAAAAAAAAAAAAAAAAAAAAAAAAAAAAAAAAAAAAAAAAAAAAAAAAAAAAAAAAAAAAAAAAAAAAAAAAAAAAAAAAAAAAAAAAAAAAAAAAAAAAAAAAAAAAAAAAAAAAAAAAAAAAAAAAAAAAAAAAAAAAAAAAAAAAAAAAAAAAAAAAAAAAAAAAAAAAAAAAAAAAAAAAAAAAAAAAAAAAAAAAAAAAAAAAAAAAAAAAAAAAAAAAAAAAAAAAAAAAAAAAAAAAAAAAAAAAAAAAAAAAAAAAAAAAAAAAAAAAAAAAAAAAAAAAAAAAAAAAAAAAAAAAAAAAAAAAAAAAAAAAAAAAAAAAAAAAAAAAAAAAAAAAAAAAAAAAAAAAAAAAAAAAAAAAAAAAAAAAAAAAAAAAAAAAAAAAAAAAAAAAAAAAAAAAAAAAAAAAAAAAAAAAAAAAAAAAAAAAAAAAAAAAAAAAAAAAAAAAAAAAAAAAAAAAAAAAAAAAAAAAAAAAAAAAAAAAAAAAAAAAAAAAAAAAAAAAAAAAAAAAAAAAAAAAAAAAAAAAAAAAAAAAAAAAAAAAAAAAAAAAAAAAAAAAAAAAAAAAAAAAAAAAAAAAAAAAAAAAAAAAAAAAAAAAAAAAAAAAAAAAAAAAAAAAAAAAAAAAAAAAAAAAAAAAAAAAAAAAAAAAAAAAAAAAAAAAAAAAAAAAAAAAAAAAAAAAAAAAAAAAAAAAAAAAAAAAAAAAAAAAAAAAAAAAAAAAAAAAAAAAAAAAAAAAAAAAAAAAAAAAAAAAAAAAAAAAAAAAAAAAAAAAAAAAAAAAAAAAAAAAAAAAAAAAAAAAAAAAAAAAAAAAAAAAAAAAAAAAAAAAAAAAAAAAAAAAAAAAAAAAAAAAAAAAAAAAAAAAAAAAAAAAAAAAAAAAAAAAAAAAAAAAAAAAAAAAAAAAAAAAAAAAAAAAAAAAAAAAAAAAAAAAAAAAAAAAAAAAAAAAAAAAAAAAAAAAAAAAAAAAAAAAAAAAAAAAAAAAAAAAAAAAAAAAAAAAAAAAAAAAAAAAAAAAAAAAAAAAAAAAAAAAAAAAAAAAAAAAAAAAAAAAAAAAAAAAAAAAAAAAAAAAAAAAAAAAAAAAAAAAAAAAAAAAAAAAAAAAAAAAAAAAAAAAAAAAAAAAAAAAAAAAAAAAAAAAAAAAAAAAAAAAAAAAAAAAAAAAAAAAAAAAAAAAAAAAAAAAAAAAAAAAAAAAAAAAAAAAAAAAAAAAAAAAAAAAAAAAAAAAAAAAAAAAAAAAAAAAAAAAAAAAAAAAAAAAAAAAAAAAAAAAAAAAAAAAAAAAAAAAAAAAAAAAAAAAAAAAAAAAAAAAAAAAAAAAAAAAAAAAAAAAAAAAAAAAAAAAAAAAAAAAAAAAAAAAAAAAAAAAAAAAAAAAAAAAAAAAAAAAAAAAAAAAAAAAAAAAAAAAAAAAAAAAAAAAAAAAAAAAAAAAAAAAAAAAAAAAAAAAAAAAAAAAAAAAAAAAAAAAAAAAAAAAAAAAAAAAAAAAAAAAAAAAAAAAAAAAAAAAAAAAAAAAAAAAAAAAAAAAAAAAAAAAAAAAAAAAAAAAAAAAAAAAAAAAAAAAAAAAAAAAAAAAAAAAAAAAAAAAAAAAAAAAAAAAAAAAAAAAAAAAAAAAAAAAAAAAAAAAAAAAAAAAAAAAAAAAAAAAAAAAAAAAAAAAAAAAAAAAAAAAAAAAAAAAAAAAAAAAAAAAAAAAAAAAAAAAAAAAAAAAAAAAAAAAAAAAAAAAAAAAAAAAAAAAAAAAAAAAAAAAAAAAAAAAAAAAAAAAAAAAAAAAAAAAAAAAAAAAAAAAAAAAAAAAAAAAAAAAAAAAAAAAAAAAAAAAAAAAAAAAAAAAAAAAAAAAAAAAAAAAAAAAAAAAAAAAAAAAAAAAAAAAAAAAAAAAAAAAAAAAAAAAAAAAAAAAAAAAAAAAAAAAAAAAAAAAAAAAAAAAAAAAAAAAAAAAAAAAAAAAAAAAAAAAAAAAAAAAAAAAAAAAAAAAAAAAAAAAAAAAAAAAAAAAAAAAAAAAAAAAAAAAAAAAAAAAAAAAAAAAAAAAAAAAAAAAAAAAAAAAAAAAAAAAAAAAAAAAAAAAAAAAAAAAAAAAAAAAAAAAAAAAAAAAAAAAAAAAAAAAAAAAAAAAAAAAAAAAAAAAAAAAAAAAAAAAAAAAAAAAAAAAAAAAAAAAAAAAAAAAAAAAAAAAAAAAAAAAAAAAAAAAAAAAAAAAAAAAAAAAAAAAAAAAAAAAAAAAAAAAAAAAAAAAAAAAAAAAAAAAAAAAAAAAAAAAAAAAAAAAAAAAAAAAAAAAAAAAAAAAAAAAAAAAAAAAAAAAAAAAAAAAAAAAAAAAAAAAAAAAAAAAAAAAAAAAAAAAAAAAAAAAAAAAAAAAAAAAAAAAAAAAAAAAAAAAAAAAAAAAAAAAAAAAAAAAAAAAAAAAAAAAAAAAAAAAAAAAAAAAAAAAAAAAAAAAAAAAAAAAAAAAAAAAAAAAAAAAAAAAAAAAAAAAAAAAAAAAAAAAAAAAAAAAAAAAAAAAAAAAAAAAAAAAAAAAAAAAAAAAAAAAAAAAAAAAAAAAAAAAAAAAAAAAAAAAAAAAAAAAAAAAAAAAAAAAAAAAAAAAAAAAAAAAAAAAAAAAAAAAAAAAAAAAAAAAAAAAAAAAAAAAAAAAAAAAAAAAAAAAAAAAAAAAAAAAAAAAAAAAAAAAAAAAAAAAAAAAAAAAAAAAAAAAAAAAAAAAAAAAAAAAAAAAAAAAAAAAAAAAAAAAAAAAAAAAAAAAAAAAAAAAAAAAAAAAAAAAAAAAAAAAAAAAAAAAAAAAAAAAAAAAAAAAAAAAAAAAAAAAAAAAAAAAAAAAAAAAAAAAAAAAAAAAAAAAAAAAAAAAAAAAAAAAAAAAAAAAAAAAAAAAAAAAAAAAAAAAAAAAAAAAAAAAAAAAAAAAAAAAAAAAAAAAAAAAAAAAAAAAAAAAAAAAAAAAAAAAAAAAAAAAAAAAAAAAAAAAAAAAAAAAAAAAAAAAAAAAAAAAAAAAAAAAAAAAAAAAAAAAAAAAAAAAAAAAAAAAAAAAAAAAAAAAAAAAAAAAAAAAAAAAAAAAAAAAAAAAAAAAAAAAAAAAAAAAAAAAAAAAAAAAAAAAAAAAAAAAAAAAAAAAAAAAAAAAAAAAAAAAAAAAAAAAAAAAAAAAAAAAAAAAAAAAAAAAAAAAAAAAAAAAAAAAAAAAAAAAAAAAAAAAAAAAAAAAAAAAAAAAAAAAAAAAAAAAAAAAAAAAAAAAAAAAAAAAAAAAAAAAAAAAAAAAAAAAAAAAAAAAAAAAAAAAAAAAAAAAAAAAAAAAAAAAAAAAAAAAAAAAAAAAAAAAAAAAAAAAAAAAAAAAAAAAAAAAAAAAAAAAAAAAAAAAAAAAAAAAAAAAAAAAAAAAAAAAAAAAAAAAAAAAAAAAAAAAAAAAAAAAAAAAAAAAAAAAAAAAAAAAAAAAAAAAAAAAAAAAAAAAAAAAAAAAAAAAAAAAAAAAAAAAAAAAAAAAAAAAAAAAAAAAAAAAAAAAAAAAAAAAAAAAAAAAAAAAAAAAAAAAAAAAAAAAAAAAAAAAAAAAAAAAAAAAAAAAAAAAAAAAAAAAAAAAAAAAAAAAAAAAAAAAAAAAAAAAAAAAAAAAAAAAAAAAAAAAAAAAAAAAAAAAAAAAAAAAAAAAAAAAAAAAAAAAAAAAAAAAAAAAAAAAAAAAAAAAAAAAAAAAAAAAAAAAAAAAAAAAAAAAAAAAAAAAAAAAAAAAAAAAAAAAAAAAAAAAAAAAAAAAAAAAAAAAAAAAAAAAAAAAAAAAAAAAAAAAAAAAAAAAAAAAAAAAAAAAAAPZYQDLgd4GskgVKvXavCyVQbb2lgTVtJwGjhB9foLuUwvB660GXL2fONej0tvkI2ujtbImKYDtDxh5DJGMyPa8TzSo=</c2pa:manifest></metadata><title>Gadgetra.lk</title><g transform="translate(-168.4403,-262.9979) scale(1.2162)"><path fill="#FFFFFF" fill-rule="evenodd" d="M890 787.5L889 786.75L641.5 787L641 789.25L889.5 789.75L890 787.5Z M445.5 787.5C445.5 787.5 485.46 786.83 444.25 786.75C403.04 786.67 198.25 787 198.25 787L197.75 789L198.25 789.75L445 789.75L445.5 787.5Z M562.25 772L562 805.25L567.25 805.25L567.5 795.75L570.5 792L571.5 792L582.75 805.5L589.25 805.5L589.25 804.5L575.25 788.5L575.25 787.25L589 772L581.75 772.5L568.5 787L567.5 786.5L567.5 772.75L566.75 772L562.25 772Z M522.75 772L522.5 805.25L544.25 805.5L544.75 801.25L543.75 800.25C543.75 800.25 531.88 800.58 529.25 800.5C526.62 800.42 528 799.75 528 799.75L528 772.75L527.5 772L522.75 772Z M582 686.75L581.75 731.75L582.5 732.75L648 733.25L649 732.5L649.25 720.75L647.75 719.5L597.5 719.5L596.5 718.5L596.5 700.75L597.5 699.75L636.25 699.5L637.5 698L637.5 687L636.75 686L583.25 685.75L582 686.75Z M485.5 659.75C483.12 661.42 481.67 662.79 479.75 665C477.83 667.21 475.46 670.38 474 673C472.54 675.62 471.75 677.67 471 680.75C470.25 683.83 469.62 688.17 469.5 691.5C469.38 694.83 469.62 697.62 470.25 700.75C470.88 703.88 472.12 707.58 473.25 710.25C474.38 712.92 475.58 714.79 477 716.75C478.42 718.71 479.46 720.04 481.75 722C484.04 723.96 487.83 726.88 490.75 728.5C493.67 730.12 496.33 730.92 499.25 731.75C502.17 732.58 504.92 733.21 508.25 733.5C511.58 733.79 515.83 733.67 519.25 733.5C522.67 733.33 525.71 733.08 528.75 732.5C531.79 731.92 534.79 731 537.5 730C540.21 729 542.54 727.96 545 726.5C547.46 725.04 552.25 721.25 552.25 721.25L552.75 688.25L551 686.5L520 686.5L518.75 687.5C518.75 687.5 518.42 696.21 518.5 698.25C518.58 700.29 519.25 699.75 519.25 699.75L536.5 700L538 701.25L538 713.5C538 713.5 537.54 714.79 535.25 715.75C532.96 716.71 528.38 718.58 524.25 719.25C520.12 719.92 513.79 719.88 510.5 719.75C507.21 719.62 506.5 719.12 504.5 718.5C502.5 717.88 500.12 716.83 498.5 716C496.88 715.17 496.12 714.71 494.75 713.5C493.38 712.29 491.54 710.54 490.25 708.75C488.96 706.96 487.83 704.83 487 702.75C486.17 700.67 485.54 698.58 485.25 696.25C484.96 693.92 484.92 691.21 485.25 688.75C485.58 686.29 486.33 683.71 487.25 681.5C488.17 679.29 489.42 677.25 490.75 675.5C492.08 673.75 493.42 672.38 495.25 671C497.08 669.62 499.33 668.21 501.75 667.25C504.17 666.29 503 665.62 509.75 665.25C516.5 664.88 542.25 665 542.25 665L543 664.25L542.5 652C542.5 652 512.83 651.5 504.75 652C496.67 652.5 497.21 653.71 494 655C490.79 656.29 487.88 658.08 485.5 659.75Z M361.25 652.5L361 732L362 733C362 733 399.58 733.33 408.25 733.25C416.92 733.17 410.92 733.42 414 732.5C417.08 731.58 422.79 730.08 426.75 727.75C430.71 725.42 435.25 721.08 437.75 718.5C440.25 715.92 440.54 714.71 441.75 712.25C442.96 709.79 444.25 706.54 445 703.75C445.75 700.96 446.08 698.42 446.25 695.5C446.42 692.58 446.25 688.79 446 686.25C445.75 683.71 445.54 682.71 444.75 680.25C443.96 677.79 442.46 673.88 441.25 671.5C440.04 669.12 439.08 667.88 437.5 666C435.92 664.12 434.12 662.04 431.75 660.25C429.38 658.46 426.58 656.62 423.25 655.25C419.92 653.88 421.92 652.58 411.75 652C401.58 651.42 362.25 651.75 362.25 651.75L361.25 652.5Z M285.5 651.75C285.5 651.75 276.71 668 270 681.5C263.29 695 245.25 732.75 245.25 732.75L260.25 733.25C260.25 733.25 256.5 742.21 261.5 732.25C266.5 722.29 290.25 673.5 290.25 673.5L291.5 672.75C291.5 672.75 315.71 722.42 320.75 732.5C325.79 742.58 321.75 733.25 321.75 733.25L336.25 733.25L336.75 731.5C336.75 731.5 304.46 666.04 297.75 652.75C291.04 639.46 296.5 651.75 296.5 651.75L285.5 651.75Z M745.5 651.75L675.5 651.75L674.5 652.75L674.25 663.5L675.75 665.25L701.75 665.25L702.75 666L702.75 732L703.5 733L716.5 733.25L717.75 732L718 665.75L745.5 665L746.5 663.5L746.5 653L745.5 651.75Z M649.25 653L647.5 651.5L583.25 651.75L581.75 653.25L581.75 663.75L583.25 665.25L647.75 665.25L649.25 664L649.25 653Z M211 651.75C211 651.75 182.54 651.54 175.5 651.75C168.46 651.96 170.92 652.46 168.75 653C166.58 653.54 165.21 653.62 162.5 655C159.79 656.38 155.04 659.29 152.5 661.25C149.96 663.21 148.79 664.83 147.25 666.75C145.71 668.67 144.42 670.54 143.25 672.75C142.08 674.96 141.04 677.25 140.25 680C139.46 682.75 138.79 686.75 138.5 689.25C138.21 691.75 138.33 692.83 138.5 695C138.67 697.17 138.75 699.42 139.5 702.25C140.25 705.08 141.92 709.58 143 712C144.08 714.42 144.54 714.92 146 716.75C147.46 718.58 149.46 721.04 151.75 723C154.04 724.96 156.58 726.92 159.75 728.5C162.92 730.08 167.79 731.67 170.75 732.5C173.71 733.33 174.46 733.33 177.5 733.5C180.54 733.67 185.58 733.67 189 733.5C192.42 733.33 194.96 733.12 198 732.5C201.04 731.88 204.58 730.75 207.25 729.75C209.92 728.75 211.71 727.88 214 726.5C216.29 725.12 219.71 722.58 221 721.5C222.29 720.42 221.62 725.54 221.75 720C221.88 714.46 221.75 688.25 221.75 688.25L220 686.5C220 686.5 194.38 686.38 189 686.5C183.62 686.62 187.75 687.25 187.75 687.25L187.25 698.25L188.25 699.75L206 700L207 701L206.75 714C206.75 714 202.04 716.79 199.25 717.75C196.46 718.71 192.92 719.38 190 719.75C187.08 720.12 184.21 720.12 181.75 720C179.29 719.88 178.08 719.96 175.25 719C172.42 718.04 167.29 715.79 164.75 714.25C162.21 712.71 161.29 711.29 160 709.75C158.71 708.21 158 707.58 157 705C156 702.42 154.42 697.17 154 694.25C153.58 691.33 154.04 689.83 154.5 687.5C154.96 685.17 155.71 682.46 156.75 680.25C157.79 678.04 159.29 675.96 160.75 674.25C162.21 672.54 163.75 671.21 165.5 670C167.25 668.79 168.88 667.79 171.25 667C173.62 666.21 173.17 665.54 179.75 665.25C186.33 664.96 210.75 665.25 210.75 665.25L212 664L212 653L211 651.75Z M474 454L527.75 454.25L552.25 416.75L728.25 416.75L729 416.25L729 367.25L529.25 367L474 454Z M511.25 218.25C503.58 219.42 493.92 221.62 487.5 223.25C481.08 224.88 478.33 225.88 472.75 228C467.17 230.12 459.62 233.29 454 236C448.38 238.71 444.17 241.04 439 244.25C433.83 247.46 427.88 251.54 423 255.25C418.12 258.96 414.42 262.04 409.75 266.5C405.08 270.96 399.46 276.79 395 282C390.54 287.21 386.62 292.46 383 297.75C379.38 303.04 376.21 308.29 373.25 313.75C370.29 319.21 367.46 325.46 365.25 330.5C363.04 335.54 361.88 338.08 360 344C358.12 349.92 355.5 359.08 354 366C352.5 372.92 351.62 377.88 351 385.5C350.38 393.12 350.21 404.83 350.25 411.75C350.29 418.67 350.58 421.33 351.25 427C351.92 432.67 353.12 440.17 354.25 445.75C355.38 451.33 356.33 455.08 358 460.5C359.67 465.92 361.92 472.5 364.25 478.25C366.58 484 368.88 489.17 372 495C375.12 500.83 378.71 507.04 383 513.25C387.29 519.46 393.08 526.83 397.75 532.25C402.42 537.67 406.46 541.5 411 545.75C415.54 550 419.79 553.75 425 557.75C430.21 561.75 437.04 566.42 442.25 569.75C447.46 573.08 450.71 574.96 456.25 577.75C461.79 580.54 469.25 584.04 475.5 586.5C481.75 588.96 487.54 590.79 493.75 592.5C499.96 594.21 506.5 595.67 512.75 596.75C519 597.83 523.75 598.58 531.25 599C538.75 599.42 550.5 599.46 557.75 599.25C565 599.04 569.12 598.5 574.75 597.75C580.38 597 584.79 596.42 591.5 594.75C598.21 593.08 608.04 590.29 615 587.75C621.96 585.21 633.25 579.5 633.25 579.5L633.5 522.5L632.5 522C632.5 522 619.29 530.58 612.25 534C605.21 537.42 596.29 540.5 590.25 542.5C584.21 544.5 580.25 545.12 576 546C571.75 546.88 570.42 547.33 564.75 547.75C559.08 548.17 548.88 548.67 542 548.5C535.12 548.33 530.54 548.04 523.5 546.75C516.46 545.46 507.38 543.38 499.75 540.75C492.12 538.12 484.08 534.29 477.75 531C471.42 527.71 467.08 524.88 461.75 521C456.42 517.12 451.17 513.04 445.75 507.75C440.33 502.46 434.08 495.67 429.25 489.25C424.42 482.83 419.54 474.08 416.75 469.25C413.96 464.42 414.12 464.25 412.5 460.25C410.88 456.25 408.75 451.75 407 445.25C405.25 438.75 402.96 429.29 402 421.25C401.04 413.21 400.92 404.46 401.25 397C401.58 389.54 402.71 382.83 404 376.5C405.29 370.17 406.83 364.96 409 359C411.17 353.04 414.33 346 417 340.75C419.67 335.5 422.29 331.54 425 327.5C427.71 323.46 429.58 320.67 433.25 316.5C436.92 312.33 443.12 306.12 447 302.5C450.88 298.88 452.38 297.67 456.5 294.75C460.62 291.83 466.33 287.96 471.75 285C477.17 282.04 482.79 279.33 489 277C495.21 274.67 502.12 272.5 509 271C515.88 269.5 524.42 268.54 530.25 268C536.08 267.46 538.83 267.54 544 267.75C549.17 267.96 556.29 268.58 561.25 269.25C566.21 269.92 569.29 270.62 573.75 271.75C578.21 272.88 582.96 274.12 588 276C593.04 277.88 599.62 280.88 604 283C608.38 285.12 609.79 285.83 614.25 288.75C618.71 291.67 630.75 300.5 630.75 300.5L699 300.5L699.25 299.5C699.25 299.5 687.58 284.38 681.75 278C675.92 271.62 670.83 266.71 664.25 261.25C657.67 255.79 650.12 250.12 642.25 245.25C634.38 240.38 624.88 235.54 617 232C609.12 228.46 603.46 226.33 595 224C586.54 221.67 574.42 219.29 566.25 218C558.08 216.71 551.46 216.54 546 216.25C540.54 215.96 539.29 215.92 533.5 216.25C527.71 216.58 518.92 217.08 511.25 218.25Z M376.5 665.5C376.5 665.5 401.62 665.12 408.25 665.5C414.88 665.88 413.75 666.58 416.25 667.75C418.75 668.92 421.12 670.25 423.25 672.5C425.38 674.75 427.75 678.46 429 681.25C430.25 684.04 430.58 686.08 430.75 689.25C430.92 692.42 430.33 697.79 430 700.25C429.67 702.71 429.58 702.33 428.75 704C427.92 705.67 426.75 708.25 425 710.25C423.25 712.25 420.71 714.54 418.25 716C415.79 717.46 412.42 718.38 410.25 719C408.08 719.62 410.83 719.67 405.25 719.75C399.67 719.83 376.75 719.5 376.75 719.5L375.75 718.25L375.75 666.5L376.5 665.5Z"/><path fill="#E5AC2F" fill-rule="evenodd" d="M495.5 792L491.25 794.75L490 799.75C490 799.75 490.5 801.5 491 802.25C491.5 803 491.96 803.67 493 804.25C494.04 804.83 497.25 805.75 497.25 805.75L502.25 803L503.75 798.25C503.75 798.25 503.46 796.54 503 795.75C502.54 794.96 501 793.5 501 793.5L495.5 792Z M909.25 651.75C909.25 651.75 887.75 693.38 881 706.75C874.25 720.12 868.75 732 868.75 732L869 733L883.5 733.25C883.5 733.25 879.67 742.29 884.75 732.25C889.83 722.21 914 673 914 673L915.25 672.5C915.25 672.5 939.21 721.88 944.25 732C949.29 742.12 945.5 733.25 945.5 733.25L960 733.25L960.75 732.25C960.75 732.25 928.54 666.92 921.75 653.5C914.96 640.08 920 651.75 920 651.75L909.25 651.75Z M775.5 651.75L774.25 653.5L774.75 732.5C774.75 732.5 773.96 733.08 776 733.25C778.04 733.42 784.83 733.62 787 733.5C789.17 733.38 789 732.5 789 732.5L789.25 709L790 708L810 707.75L828.75 732.75L845.75 733.25L846.25 731.75L827.75 707.25L828.5 705.75C828.5 705.75 834.08 703.46 836.25 702C838.42 700.54 839.92 699.25 841.5 697C843.08 694.75 844.88 690.67 845.75 688.5C846.62 686.33 846.71 686.79 846.75 684C846.79 681.21 846.54 674.83 846 671.75C845.46 668.67 844.46 667.29 843.5 665.5C842.54 663.71 841.83 662.58 840.25 661C838.67 659.42 836.96 657.5 834 656C831.04 654.5 832.25 652.71 822.5 652C812.75 651.29 775.5 651.75 775.5 651.75Z M563 433.25C558.12 440.79 535.25 477.25 535.25 477.25L535.25 478.75L662.25 478.75L663 479.5L663.25 591.25C663.25 591.25 665.5 591.21 669 589.75C672.5 588.29 679.92 584.96 684.25 582.5C688.58 580.04 691.79 577.54 695 575C698.21 572.46 700.67 570.21 703.5 567.25C706.33 564.29 709.71 560.25 712 557.25C714.29 554.25 715.42 552.62 717.25 549.25C719.08 545.88 721.58 540.67 723 537C724.42 533.33 725.17 529.75 725.75 527.25C726.33 524.75 726.42 536.62 726.5 522C726.58 507.38 726.08 454.25 726.25 439.5C726.42 424.75 727.5 433.5 727.5 433.5L727 432.25L564.5 432C564.5 432 567.88 425.71 563 433.25Z M789.25 666.25L790.25 665.25C790.25 665.25 812.67 665 818.25 665.25C823.83 665.5 821.96 665.79 823.75 666.75C825.54 667.71 827.83 669.75 829 671C830.17 672.25 830.29 673 830.75 674.25C831.21 675.5 831.75 676.58 831.75 678.5C831.75 680.42 831.54 683.67 830.75 685.75C829.96 687.83 828.58 689.62 827 691C825.42 692.38 822.83 693.38 821.25 694C819.67 694.62 822.67 694.62 817.5 694.75C812.33 694.88 790.25 694.75 790.25 694.75L789.25 693.75L789.25 666.25Z"/></g></svg>